<svg width="64" height="64" viewBox="0 0 64 64" fill="none" xmlns="http://www.w3.org/2000/svg">
  <rect width="64" height="64" rx="8" fill="#2d2d2d"/>
  <rect x="4" y="4" width="56" height="56" rx="4" fill="#3a3a3a"/>
  
  <!-- Books Stack -->
  <rect x="12" y="20" width="32" height="4" rx="1" fill="#4CAF50"/>
  <rect x="14" y="26" width="28" height="4" rx="1" fill="#45a049"/>
  <rect x="16" y="32" width="24" height="4" rx="1" fill="#4CAF50"/>
  
  <!-- Open Book -->
  <path d="M18 38 L32 42 L46 38 L46 50 L32 54 L18 50 Z" fill="#4CAF50" opacity="0.7"/>
  <path d="M32 42 L32 54" stroke="#2d2d2d" stroke-width="1"/>
  <path d="M22 40 L28 41.5" stroke="#2d2d2d" stroke-width="1" opacity="0.5"/>
  <path d="M36 41.5 L42 40" stroke="#2d2d2d" stroke-width="1" opacity="0.5"/>
  <path d="M22 44 L28 45.5" stroke="#2d2d2d" stroke-width="1" opacity="0.5"/>
  <path d="M36 45.5 L42 44" stroke="#2d2d2d" stroke-width="1" opacity="0.5"/>
  
  <!-- Academic Cap -->
  <rect x="20" y="12" width="24" height="3" rx="1.5" fill="#4CAF50"/>
  <rect x="30" y="10" width="4" height="7" rx="1" fill="#45a049"/>
  <circle cx="32" cy="10" r="2" fill="#4CAF50"/>
</svg>
